inDegrees=no
num_controls=7
num_derivatives=13
num_iterations=147
num_multipliers=7
num_parameters=0
num_slacks=7
num_states=26
objective=0.494952
objective_accelerations=0.010875
objective_balance=0.003816
objective_effort=0.016445
objective_height=0.362754
objective_ligament=0.101062
solver_duration=1858.997709
status=Solve_Succeeded
success=true
DataType=double
version=3
OpenSimVersion=4.5
endheader
time	/jointset/ground_pelvis/pelvis_tilt/value	/jointset/ground_pelvis/pelvis_tx/value	/jointset/ground_pelvis/pelvis_ty/value	/jointset/hip_l/hip_flexion_l/value	/jointset/hip_l/hip_adduction_l/value	/jointset/hip_l/hip_rotation_l/value	/jointset/back/lumbar_extension/value	/jointset/patellofemoral_l/patellar_flexion_l/value	/jointset/knee_l/knee_flexion_l/value	/jointset/knee_l/knee_adduction_l/value	/jointset/knee_l/knee_rotation_l/value	/jointset/ankle_l/ankle_angle_l/value	/jointset/subtalar_l/subtalar_angle_l/value	/jointset/ground_pelvis/pelvis_tilt/speed	/jointset/ground_pelvis/pelvis_tx/speed	/jointset/ground_pelvis/pelvis_ty/speed	/jointset/hip_l/hip_flexion_l/speed	/jointset/hip_l/hip_adduction_l/speed	/jointset/hip_l/hip_rotation_l/speed	/jointset/back/lumbar_extension/speed	/jointset/patellofemoral_l/patellar_flexion_l/speed	/jointset/knee_l/knee_flexion_l/speed	/jointset/knee_l/knee_adduction_l/speed	/jointset/knee_l/knee_rotation_l/speed	/jointset/ankle_l/ankle_angle_l/speed	/jointset/subtalar_l/subtalar_angle_l/speed	/forceset/tau_hip_flexion_l	/forceset/tau_hip_adduction_l	/forceset/tau_hip_rotation_l	/forceset/tau_knee_flexion_l	/forceset/tau_ankle_angle_l	/forceset/tau_subtalar_angle_l	/forceset/tau_lumbar_extension	lambda_cid13_p0	lambda_cid13_p1	lambda_cid13_p2	lambda_cid13_p3	lambda_cid13_p4	lambda_cid13_p5	lambda_cid14_p0	/jointset/ground_pelvis/pelvis_tilt/accel	/jointset/ground_pelvis/pelvis_tx/accel	/jointset/ground_pelvis/pelvis_ty/accel	/jointset/hip_l/hip_flexion_l/accel	/jointset/hip_l/hip_adduction_l/accel	/jointset/hip_l/hip_rotation_l/accel	/jointset/back/lumbar_extension/accel	/jointset/patellofemoral_l/patellar_flexion_l/accel	/jointset/knee_l/knee_flexion_l/accel	/jointset/knee_l/knee_adduction_l/accel	/jointset/knee_l/knee_rotation_l/accel	/jointset/ankle_l/ankle_angle_l/accel	/jointset/subtalar_l/subtalar_angle_l/accel	gamma_cid13_p0	gamma_cid13_p1	gamma_cid13_p2	gamma_cid13_p3	gamma_cid13_p4	gamma_cid13_p5	gamma_cid14_p0
0	-0.01354373773708068	0.04563204180764262	0.9237286706312561	0.3085816938045678	-0.2547641175318703	-0.3205595222812059	-0.3879492264334186	0.2499269421184774	0.2499269421184919	-0.08854709841041858	-0.1745276576310007	-0.0008036623358878681	0.04323735852848457	0	0	0	0	0	0	0	0	0	0	0	0	0	0.07833696316614977	-0.02564023259120002	-0.01445272085453069	-0.2947211368090338	0.2822579785689844	-0.04944045204417486	0.0154559726346135	43.00287697857578	13.59138915680734	-2.220097966906257	-7.194810971111651	-661.435209852957	-52.68749956008917	-22.89846859370704	-0.3996956742289106	-1.232972343237333	-0.3461783431487274	3.748295220781301	0.2687950999635766	0.6274206650920888	-6.041718714440395	2.657200094802857	2.657200094802868	1.470209160498353	-0.01679361799906489	-0.296564055160853	0.1617744669213665	9.045434887790404e-09	2.998873471491661e-08	-2.251571978568379e-08	-3.226842199455227e-09	2.766124874906365e-08	1.531211537008441e-08	6.797362312053191e-09
0.01	-0.01356229547010418	0.04557081851541968	0.9237117177717151	0.3087647532821258	-0.2547513676246331	-0.3205272239315999	-0.3882486522492649	0.2500564978930173	0.250056497892997	-0.0884763859726949	-0.1745270885276223	-0.0008195661629675006	0.04324430698803582	-0.003681202877188195	-0.01221179056297712	-0.003374797534866181	0.03639630762792397	0.002505803895416593	0.006432166046256006	-0.0595163249470502	0.02570503591967968	0.02570503591967982	0.01397499752260194	0.0001191191173645927	-0.003250007121850767	0.001317615230891542	0.07152930057751092	-0.03111640958063292	-0.01394436840715023	-0.2855516918711135	0.2673681793056447	-0.03883616109516873	0.02087890746816248	38.65553708963958	9.635662527247288	-1.462120438061208	-5.156494692858399	-662.8383776828344	-60.2745954037247	-22.90006010784499	-0.3477811450606309	-1.210352875205169	-0.3307587703963338	3.552960762211862	0.2348436325930318	0.6469943037637482	-5.851263652468889	2.496236133213512	2.496236133213349	1.336024884878601	0.02705440034859496	-0.3496037507679171	0.1059413328115124	9.13154031300914e-09	2.763308936282862e-08	-1.066911605554167e-08	-1.698237236586322e-09	2.212421363092903e-08	7.974625912973352e-09	6.728876502167624e-09
0.02	-0.01361675494198682	0.04538846322509174	0.9236614912744778	0.3093053082816434	-0.254714885558785	-0.3204314279756458	-0.3891321761680984	0.250436920185246	0.2504369201852426	-0.08827094759248053	-0.1745251702883656	-0.000870047003273089	0.04326226885622422	-0.007180347778331047	-0.02422639962100106	-0.006654727539242469	0.07149910439240395	0.0047464317213765	0.0126995212673509	-0.1168196205994124	0.05017330354587701	0.05017330354587742	0.0269451885147036	0.0002698271845033227	-0.006915402646526399	0.002202681727326389	0.06472163798868132	-0.03659258657019637	-0.01343601595938843	-0.2763822469332916	0.2524783800422432	-0.02823187014632792	0.02630184230164094	34.33034070036658	5.677746806388328	-0.7057222074322275	-3.096817870156927	-663.8725853858333	-67.83495984314172	-22.90473483768286	-0.3632840790202419	-1.19353604224643	-0.3272048370507452	3.48959304809256	0.2157598860722749	0.5944585000597533	-5.599112855503105	2.409846436106304	2.409846436106341	1.269247854398359	-0.01047582804428654	-0.3796417357255525	0.07526472003016912	9.217645738227876e-09	2.527744401074063e-08	1.177487674600453e-09	-1.696322737174166e-10	1.65871785127944e-08	6.371364558622909e-10	6.660390692282057e-09
0.03	-0.01370532564034281	0.04508775575732109	0.9235789321843797	0.310189944672997	-0.2546575901682422	-0.3202739505357807	-0.3905771988488388	0.2510568690897413	0.2510568690897384	-0.08794096438870873	-0.174521996418436	-0.0009577553763037269	0.04328720728484444	-0.01049508184529083	-0.03580123085143504	-0.009840596802999584	0.105150079016949	0.006638080828876164	0.01878818322620831	-0.1717811872616131	0.07371127638870058	0.07371127638870199	0.0388580605530326	0.0003633551269110921	-0.01054460278887068	0.002737713601388903	0.05998984173771585	-0.03067978703285709	-0.01326251579664544	-0.2728335742336147	0.25169147438798	-0.03162542484686363	0.03081839098258764	33.88996734454351	7.153944548859618	-0.8557097169079796	-3.82611363422168	-665.1067324137913	-64.08007288058791	-22.91233174846576	-0.3097607994118812	-1.122377228325845	-0.3118006243641502	3.261136478517347	0.1646772004463305	0.6149035670688133	-5.384119329316221	2.309991232028446	2.309991232028377	1.123302740015987	0.0190277763593648	-0.3423064713551596	0.03552449567248692	4.662385342873379e-09	1.685519473063351e-08	9.356854850538308e-09	3.532949447987506e-09	-5.521953670335025e-09	-5.757185815364545e-09	4.818033876142444e-09
0.04	-0.01382588222510924	0.04467471586426949	0.9234650098709795	0.3114027481723661	-0.2545836163311531	-0.3200558197716634	-0.3925597253477434	0.251909041427375	0.2519090414273735	-0.08749765329230057	-0.1745179351348757	-0.001079305214326291	0.04331607644712156	-0.01357752506744878	-0.04669288467719006	-0.01292737219970115	0.1371325259967644	0.008082121030718242	0.02483018611585624	-0.224320384233367	0.09661799017784387	0.096617990177846	0.04961076704999808	0.0004473099083582403	-0.01368369564586433	0.002988828458584538	0.05525804548650703	-0.02476698749561721	-0.01308901563373287	-0.2692849015340644	0.2509045687336515	-0.03501897954753078	0.0353349396634147	33.4692630308524	8.627686050304296	-1.006433815118472	-4.535523264670456	-666.0117303969374	-60.30068813371444	-22.92276226551508	-0.3168259100602359	-1.056900561310422	-0.3073860636396342	3.155887519146672	0.126238104940795	0.5851266862177118	-5.114638917414016	2.283594625370177	2.283594625370161	1.037214746125728	-0.0123904602365011	-0.2816202786552052	0.01848131665691736	1.142668317716426e-11	8.30786083345384e-09	1.746060890164721e-08	7.280355432761216e-09	-2.797277857645405e-08	-1.213206134049068e-08	2.939102400080066e-09
0.05	-0.01397637303739069	0.0441553934587131	0.923320557977908	0.3129285284690123	-0.2544973015121589	-0.3197778890708465	-0.3950573538586829	0.2529873479518147	0.2529873479518084	-0.0869522322076564	-0.1745135223448747	-0.001230752337601682	0.04334582659360196	-0.01650193878606872	-0.05713510585591785	-0.01596110840663469	0.1678813086419368	0.009116710440974432	0.0307572335479594	-0.2749895273542869	0.1189526954050666	0.1189526954050675	0.05930270137650819	0.0004363771359992386	-0.01662173282250463	0.002887920853200155	0.05080742630874809	-0.02435380016602916	-0.01278079532408076	-0.2645409459532153	0.2450247922587104	-0.03263897474299999	0.03900831125841424	31.70408782241811	7.832850036507164	-0.7994507918699966	-3.841240206184421	-666.1381852325878	-61.37122952745249	-22.93593759085979	-0.2774429974546974	-1.032407822590217	-0.3010884739977501	3.013040624397833	0.08244561278902213	0.5966831425466153	-5.010683420085686	2.194815003180257	2.194815003179905	0.909573462536429	0.004727576857486418	-0.3022949133951939	-0.03537219723017924	-2.893054515652471e-09	-5.267657626187064e-09	2.282559587805115e-08	6.496879504823292e-09	-2.898622561141473e-08	-1.433317814188749e-08	-3.889612291082089e-10
0.06	-0.01415554676576692	0.04353274385608234	0.923145824507812	0.3147575299895407	-0.2544025655483202	-0.3194406500215323	-0.3980552000829579	0.2542862828348594	0.2542862828348587	-0.08631501364246108	-0.1745091844300671	-0.001412059727884594	0.04337236858441034	-0.01931410829243186	-0.06735832409206161	-0.01898368760460692	0.1977767707749167	0.009766350000109404	0.03669185581365079	-0.3243639269014379	0.1407436619035634	0.1407436619035631	0.06797026316793271	0.0004323348673626156	-0.01965574904821267	0.002347197324058641	0.04635680713076474	-0.02394061283653041	-0.01247257501423609	-0.2597969903724809	0.239145015783712	-0.03025896993858678	0.04268168285330188	29.95747701903058	7.035788462739121	-0.5932835961877254	-3.130461586666699	-665.9580153403062	-62.41659807783366	-22.95175809992132	-0.2943770676091867	-1.013099972793442	-0.3051546618473706	2.98522341670825	0.04924813471659903	0.5866416529352383	-4.855690202660465	2.174846879624923	2.17484687962492	0.8323402391087023	-0.01101235949209205	-0.3008160884685789	-0.06948186809439318	-5.723999821392985e-09	-1.905488912003685e-08	2.807526634604646e-08	5.522629601613299e-09	-2.909704620969505e-08	-1.635855773386411e-08	-3.778040948954415e-09
0.07000000000000001	-0.01436222893992493	0.04280951642457127	0.9229410210514837	0.3168802001395229	-0.2543030306576883	-0.3190448314214387	-0.4015382654926522	0.255799912572533	0.2557999125725394	-0.08559586015326989	-0.1745053449422653	-0.001623627773404754	0.04339176411074074	-0.02198889842802298	-0.07719485672675468	-0.02196422611996777	0.2265045660014711	0.01009605392933549	0.04244465785711234	-0.3718387047191339	0.161845197196941	0.1618451971969416	0.07571635509406346	0.0003359536727543113	-0.02261511123887154	0.001501699524701413	0.0397080883921014	-0.02219789843988321	-0.01210390376064853	-0.2536677788924154	0.2328211059444422	-0.02811512605376016	0.04853416931837963	28.0225651825618	6.356556012025227	-0.3856775220067498	-2.907686277929364	-666.7686640473939	-62.96566086803973	-22.97010354851042	-0.2490149836048603	-0.9550829932008256	-0.292592635965659	2.778653791253043	0.01814562316373761	0.5655126340376789	-4.631804024170155	2.057244385673847	2.057244385673834	0.7241305007920721	-0.008886513936294256	-0.2870844235339973	-0.09661515822920923	-8.724230948812176e-09	-3.088632726960771e-08	2.95880860653238e-08	6.591200270174956e-09	-3.75834884182197e-08	-1.911316706872592e-08	-5.960680339911044e-09
0.08	-0.01459465601482807	0.04199069304983469	0.922706794372085	0.3192825674848857	-0.2542015359075409	-0.3185923021701064	-0.4054837651710893	0.2575204451694296	0.2575204451694282	-0.08480356837854515	-0.1745024563692862	-0.001863507068662436	0.04340179837460366	-0.02446308844651107	-0.0864775127371587	-0.02486833221869118	0.2537162098529798	0.01015832190412045	0.04803398606000837	-0.4168507806507101	0.1821242337495021	0.1821242337495036	0.08259792027727142	0.0002421518985002076	-0.02531799899630765	0.0004749448304367131	0.03305936965323986	-0.02045518404330829	-0.01173523250701613	-0.2475385674124402	0.2264971961051276	-0.02597128216902777	0.05438665578335145	26.10417137050793	5.675241712626366	-0.1786649885511049	-2.670508454450431	-667.307292759418	-63.49047243000279	-22.99081832660744	-0.2542570441888528	-0.9023246479355016	-0.2898681785198802	2.681993141699174	-0.004239056171568165	0.5539468848220456	-4.363149825436755	2.010347131461582	2.010347131461562	0.6594348905242512	-0.01049647542129006	-0.2495212018238916	-0.1057332470757772	-1.173538374214612e-08	-4.259158520341861e-08	3.085981863952256e-08	7.791565814334784e-09	-4.661029331127624e-08	-2.191482348377387e-08	-8.065484870939309e-09
